PathFileType	4	(X/Y/Z)	0_1_33_p1_0-333.trc
DataRate	CameraRate	NumFrames	NumMarkers	Units	OrigDataRate	OrigDataStartFrame	OrigNumFrames
60	60	6	27	m	60	124	333
Frame#	Time	RHip			RKnee			RAnkle			RBigToe			RSmallToe			RHeel			LHip			LKnee			LAnkle			LBigToe			LSmallToe			LHeel			Neck			Head			Nose			RShoulder			RElbow			RWrist			RThumb			RIndex			RPinky			LShoulder			LElbow			LWrist			LThumb			LIndex			LPinky		
		X1	Y1	Z1	X2	Y2	Z2	X3	Y3	Z3	X4	Y4	Z4	X5	Y5	Z5	X6	Y6	Z6	X7	Y7	Z7	X8	Y8	Z8	X9	Y9	Z9	X10	Y10	Z10	X11	Y11	Z11	X12	Y12	Z12	X13	Y13	Z13	X14	Y14	Z14	X15	Y15	Z15	X16	Y16	Z16	X17	Y17	Z17	X18	Y18	Z18	X19	Y19	Z19	X20	Y20	Z20	X21	Y21	Z21	X22	Y22	Z22	X23	Y23	Z23	X24	Y24	Z24	X25	Y25	Z25	X26	Y26	Z26	X27	Y27	Z27
125	2.083333333333333	0.07632397304614753	0.21893078576459218	-0.010693807953639502	0.09102456009465561	0.17360978300015759	-0.4049302461040674	0.1442514504612709	0.27286528789370845	-0.7804519274419507	0.17496607500097847	0.0795147159078418	-0.806952409067101	0.10537443544070198	0.09985411898612068	-0.8126158513405514	0.16153734960612448	0.2979418892185574	-0.8053552863420631	0.2577587155550281	0.17867345716110164	0.025324958513594918	0.30500224073195453	0.12278689622752709	-0.3489539515444583	0.3166854703348586	0.20088791587265772	-0.7583570648279715	0.2949996415178685	0.022490992902365642	-0.7628766059994706	0.3488449156312087	0.05200118576551709	-0.7705715012375889	0.32925310420273535	0.2863933401403776	-0.8452952665364674	0.11634445188074852	0.30937545806593714	0.5001047669722958	0.07875153512058516	0.2989818564156775	0.7451248112551506	0.10833237751958065	0.22300025843235227	0.6201881829091647	-0.015134536770867447	0.3346203595507729	0.41178004522346884	0.043574522971944335	0.10130854828033367	0.24598377342798722	0.24316550691366276	0.14892786803573207	0.2743935237735938	0.30943456925468477	0.1509378486744729	0.33380553334266044	0.332928677283978	0.1715806019449519	0.3267849207490039	0.3211579515366417	0.1417878731555649	0.3081740722681712	0.28708941563234086	0.31369839030260277	0.479226891218524	0.325716866706626	0.13326175361129466	0.3173595873581839	0.0899569164321147	0.12512478930212917	0.29128851706433	0.020358902975946183	0.17812885149075733	0.25831970964894796	0.01634936229611427	0.12322851753786981	0.2527008300216037	0.05970999015703801	0.12308725902402441	0.2263245747230406
126	2.1	0.07529009486260979	0.2222419834554409	-0.012565147306528059	0.08969358366884472	0.180073794103103	-0.4053762141421889	0.14291950679545706	0.27459019728882017	-0.7871501992809148	0.17598418921341363	0.08686785395231465	-0.8141992065002496	0.10378670232749372	0.10415311702685326	-0.8161109391618662	0.16425973343296263	0.30122317679928146	-0.8160643551903627	0.2569153338176011	0.1772173876952843	0.02732646728411594	0.304105112514946	0.12415775246814678	-0.347400144370764	0.31660163674772335	0.20094599412735198	-0.7589460215744361	0.2984420316738656	0.030134267626828994	-0.7681232502879498	0.350480422509646	0.05597707635717454	-0.7711784296144231	0.3294667872796475	0.2834220555987612	-0.8440964764293875	0.11412002971079406	0.3137839366546785	0.4980693065236472	0.07509585542723429	0.29349033004470665	0.746941714999998	0.10829700245877885	0.22269842358397202	0.6168081672824967	-0.016487890763518642	0.33745298432337656	0.4091166475234856	0.04083114675606138	0.10320888044131546	0.24396390351190095	0.2425134301857597	0.15214222473286168	0.27149993348145574	0.31113369804211743	0.15167138278587888	0.33414039765385517	0.3329609431134175	0.17181950523210177	0.32644287109115017	0.3202345243307944	0.14053224537634207	0.3052500578684467	0.2872147260732671	0.31423346097284294	0.47904168760671073	0.325432899630562	0.13426711970552319	0.31697086875268876	0.08866673911173836	0.12625764104170953	0.28748634201170087	0.021073900230767353	0.17579854969486602	0.2564355860217236	0.014848032056514065	0.11477745057145818	0.25348379343422833	0.06053350729407053	0.12350487832308578	0.2248568927668847
127	2.1166666666666667	0.07468672338366503	0.22354556645116755	-0.014256136462390653	0.08926052203290329	0.1831626634965744	-0.40310108229090347	0.14182087316505756	0.2711980137352267	-0.7914271965023665	0.17572120898108667	0.0891170696259471	-0.817059234714042	0.1020368647320473	0.10588884794940306	-0.8185266177281182	0.16626391647534405	0.30342235241347665	-0.8278205119041722	0.25623079508680213	0.17603058277993966	0.028903959649546583	0.30355948302949415	0.1268785799351213	-0.3466718464997606	0.3162945246390216	0.20050451525718607	-0.7602799461300792	0.2999909027909587	0.03003343679884078	-0.767337904701152	0.3511761004813975	0.05756274878298856	-0.7712790535747656	0.3292008471070473	0.2835358168861496	-0.8454380024717068	0.11196321039825921	0.31727434873534444	0.4969863865574502	0.07165075873114769	0.2886230905812112	0.7489846226317272	0.1072060221127847	0.22003513178324038	0.6155377703075462	-0.01791400154005029	0.338728849633718	0.40710701746403427	0.037418151873976166	0.10673939559627507	0.24231968166330192	0.2424192165682158	0.15316752008182746	0.2696423346775683	0.3128539806616241	0.15291006433523777	0.33540133300962505	0.33274663381643454	0.17178943157354787	0.326830931758751	0.32003700943684543	0.14201424971138002	0.30295461854042877	0.2871769576740794	0.31469469052177235	0.47903339464766514	0.3249900807344742	0.13756897129116846	0.31592076417557247	0.08749816306447594	0.1277880280662713	0.284136572380194	0.020567302354613404	0.1766951600632642	0.2541484353333813	0.016228014134523096	0.12267341128878637	0.2474775434790538	0.060749123352321514	0.12261346306394069	0.22194699034331614
128	2.1333333333333333	0.07450962664673408	0.22356291708992398	-0.015380765836520231	0.08999086126253394	0.18113828795616913	-0.4013394104945477	0.14134613155737544	0.2680963691381547	-0.7919827263031367	0.17530947487742407	0.08621167876314563	-0.815161578046431	0.10154227156141414	0.10431042603888671	-0.8186789833195616	0.16669327963993794	0.30560235422109244	-0.8345442217460388	0.25591373280996677	0.17542138941376867	0.029183745032305523	0.30303187231128725	0.13042917297598375	-0.3475524853238662	0.3157601054948858	0.20018084786906226	-0.7608902830607817	0.3004596225216817	0.02516458616884551	-0.7634310377081087	0.351369193838553	0.05734131488178988	-0.7722851642731955	0.32851635862630457	0.2867525986536929	-0.8485757712333654	0.11061845188234334	0.3188333493192095	0.4966844807315145	0.06938501294792225	0.28558996705583656	0.7504459537483501	0.10594664903465502	0.2167632671540332	0.6154242586076648	-0.01928221430405763	0.33913654075699035	0.40608293087710445	0.034488387610895135	0.11173924065019893	0.24023443109662976	0.24255449056629502	0.15294217587024253	0.26959630377336136	0.31364154640298514	0.15387771770090458	0.337618675613245	0.33221794189079873	0.17091644895318547	0.32741538805996334	0.31934917590087963	0.14312814156191508	0.3027852732676704	0.28664499744167365	0.31463197484726785	0.47920550699230463	0.32432847122789876	0.141748924712054	0.3146889349038685	0.08664678528468461	0.12961897153252575	0.28164455866067334	0.019338287293969587	0.1799425744704701	0.25209657881416103	0.018573470701006636	0.1390262359666286	0.23802168296609982	0.06001297641143469	0.12312762060621131	0.21760977825071837
129	2.15	0.0746362814473688	0.22337240397378116	-0.015088180884876835	0.09125906467675433	0.17598241262808245	-0.40117841329702925	0.14164510504132224	0.2678569386952713	-0.78827012494686	0.17522619502639214	0.07907492753062689	-0.8091198348032567	0.1024983210884791	0.09961822297273909	-0.8158071594251797	0.16591897640931025	0.3090971417485999	-0.8334882308614615	0.2560211863400993	0.1756752039535267	0.028716229053720732	0.3026592433827572	0.13316977044852218	-0.348996958134595	0.3148092537291088	0.20038553507565557	-0.760133986697985	0.2994434182186216	0.0181285842056819	-0.758409583445367	0.35117846709340766	0.0561120735395291	-0.7736504431368879	0.328054271253426	0.2901366826207134	-0.8510212465233575	0.11009202214566374	0.3193546475038372	0.4966469241521743	0.06855808371614916	0.28451936747452283	0.7510749403359447	0.10488435001773268	0.21365627249635966	0.6153480094436699	-0.02029796139141429	0.3390527489254773	0.4062352154268051	0.032476461654354374	0.11660190810486457	0.23775180199518248	0.24260091185203075	0.15308138092199794	0.27132211963217756	0.3136387816676513	0.15422369749854828	0.33984649925690696	0.33131056960431726	0.16876437834192506	0.32772607420681255	0.31822912143155524	0.14387726918064292	0.30384728247166426	0.28537514679890164	0.31323980490888803	0.4797150518875556	0.323611216913429	0.1446140026799677	0.3142580731480404	0.08611273389271423	0.1313388423720313	0.2804515241116797	0.018219743906055758	0.183518992461615	0.25095786862316993	0.018530683399045404	0.15369461087457248	0.23105620920680017	0.05778632958512487	0.127360466044651	0.21387229925559728
130	2.1666666666666665	0.07498257616068911	0.22319145548533814	-0.01342022413312204	0.09216345620376944	0.17122154001421117	-0.4017008393791772	0.14248527770229422	0.2698011445472158	-0.7819604923991876	0.17517227072173186	0.0708000713801721	-0.8014376633549725	0.10411198472849362	0.09443653663299983	-0.8113882509689857	0.16464784394402776	0.3133651303165068	-0.8263784748316898	0.25679416529510357	0.17750761500976425	0.02790063801886032	0.3027534477356913	0.1331136653971789	-0.3489698078838688	0.31358325425277517	0.20107352882368226	-0.7587975806766223	0.29606114910049025	0.010712402985408022	-0.7531354008430429	0.3500750075009465	0.053856788618246235	-0.7734162394613564	0.3281732427958949	0.2917765779051874	-0.8510500201165638	0.10980222982914332	0.3202901564026768	0.4964455726255304	0.0685648954997306	0.2845136369380283	0.7511208892387714	0.10367054950735144	0.20991447990032464	0.6152832508215442	-0.021089458641171087	0.33778367235944895	0.40764220143179036	0.031021926457933537	0.12012664720837063	0.23574610864034437	0.24233631186265017	0.15478123279310474	0.2735444814053801	0.31327009011022156	0.15388000942685928	0.3411385572835226	0.3303596753507462	0.16624496675617342	0.32776626788019064	0.3179178689932617	0.14614193811268558	0.3044267394999165	0.28366842691556976	0.3098701200674855	0.48069270231123273	0.3228162633011129	0.14499805602474047	0.315200102211533	0.08590251994728004	0.1324058385563977	0.28058091852851486	0.017267412519711513	0.18664732900324432	0.2508573951694788	0.016275344797059433	0.1626307275223865	0.22940560124869347	0.05424499166574748	0.13506177476304038	0.21217462749927984
